<svg id="visual" viewBox="0 0 900 600" width="900" height="600" xmlns="http://www.w3.org/2000/svg" xmlns:xlink="http://www.w3.org/1999/xlink" version="1.1"><g stroke-width="1" stroke-linejoin="bevel"><path d="M522 282L563 212L516 234Z" fill="#1e264b" stroke="#1e264b"></path><path d="M522 282L569 326L563 212Z" fill="#1e264b" stroke="#1e264b"></path><path d="M569 326L663 313L563 212Z" fill="#00101c" stroke="#00101c"></path><path d="M581 96L499 120L563 212Z" fill="#00101c" stroke="#00101c"></path><path d="M563 212L499 120L516 234Z" fill="#7b2d71" stroke="#7b2d71"></path><path d="M516 234L397 219L522 282Z" fill="#482d64" stroke="#482d64"></path><path d="M569 326L631 388L663 313Z" fill="#1e264b" stroke="#1e264b"></path><path d="M493 407L631 388L569 326Z" fill="#952a72" stroke="#952a72"></path><path d="M709 168L581 96L563 212Z" fill="#1e264b" stroke="#1e264b"></path><path d="M499 120L397 219L516 234Z" fill="#0e203c" stroke="#0e203c"></path><path d="M522 282L493 407L569 326Z" fill="#952a72" stroke="#952a72"></path><path d="M371 276L493 407L522 282Z" fill="#ae266f" stroke="#ae266f"></path><path d="M663 313L709 168L563 212Z" fill="#7b2d71" stroke="#7b2d71"></path><path d="M397 219L371 276L522 282Z" fill="#612e6c" stroke="#612e6c"></path><path d="M631 388L688 398L663 313Z" fill="#c62368" stroke="#c62368"></path><path d="M663 313L782 266L709 168Z" fill="#ae266f" stroke="#ae266f"></path><path d="M605 490L688 398L631 388Z" fill="#1e264b" stroke="#1e264b"></path><path d="M508 0L421 102L499 120Z" fill="#c62368" stroke="#c62368"></path><path d="M499 120L421 102L397 219Z" fill="#06192c" stroke="#06192c"></path><path d="M397 219L315 237L371 276Z" fill="#0e203c" stroke="#0e203c"></path><path d="M709 168L677 89L581 96Z" fill="#06192c" stroke="#06192c"></path><path d="M581 96L508 0L499 120Z" fill="#7b2d71" stroke="#7b2d71"></path><path d="M688 398L782 266L663 313Z" fill="#c62368" stroke="#c62368"></path><path d="M709 168L769 94L677 89Z" fill="#612e6c" stroke="#612e6c"></path><path d="M371 276L401 432L493 407Z" fill="#482d64" stroke="#482d64"></path><path d="M493 407L605 490L631 388Z" fill="#312a59" stroke="#312a59"></path><path d="M303 88L315 237L397 219Z" fill="#612e6c" stroke="#612e6c"></path><path d="M371 276L276 434L401 432Z" fill="#00101c" stroke="#00101c"></path><path d="M538 498L605 490L493 407Z" fill="#1e264b" stroke="#1e264b"></path><path d="M401 432L538 498L493 407Z" fill="#0e203c" stroke="#0e203c"></path><path d="M782 266L802 231L709 168Z" fill="#00101c" stroke="#00101c"></path><path d="M677 89L573 0L581 96Z" fill="#952a72" stroke="#952a72"></path><path d="M573 0L508 0L581 96Z" fill="#952a72" stroke="#952a72"></path><path d="M179 170L292 260L315 237Z" fill="#7b2d71" stroke="#7b2d71"></path><path d="M315 237L292 260L371 276Z" fill="#7b2d71" stroke="#7b2d71"></path><path d="M802 231L769 94L709 168Z" fill="#1e264b" stroke="#1e264b"></path><path d="M677 89L705 0L573 0Z" fill="#7b2d71" stroke="#7b2d71"></path><path d="M508 0L409 0L421 102Z" fill="#482d64" stroke="#482d64"></path><path d="M421 102L303 88L397 219Z" fill="#952a72" stroke="#952a72"></path><path d="M769 94L705 0L677 89Z" fill="#1e264b" stroke="#1e264b"></path><path d="M409 0L303 88L421 102Z" fill="#952a72" stroke="#952a72"></path><path d="M605 490L705 515L688 398Z" fill="#482d64" stroke="#482d64"></path><path d="M688 398L838 396L782 266Z" fill="#1e264b" stroke="#1e264b"></path><path d="M782 266L900 288L802 231Z" fill="#ae266f" stroke="#ae266f"></path><path d="M677 600L705 515L605 490Z" fill="#00101c" stroke="#00101c"></path><path d="M276 434L385 521L401 432Z" fill="#7b2d71" stroke="#7b2d71"></path><path d="M401 432L385 521L538 498Z" fill="#00101c" stroke="#00101c"></path><path d="M538 498L600 600L605 490Z" fill="#7b2d71" stroke="#7b2d71"></path><path d="M808 467L838 396L688 398Z" fill="#312a59" stroke="#312a59"></path><path d="M223 334L276 434L292 260Z" fill="#c62368" stroke="#c62368"></path><path d="M292 260L276 434L371 276Z" fill="#c62368" stroke="#c62368"></path><path d="M705 515L808 467L688 398Z" fill="#1e264b" stroke="#1e264b"></path><path d="M133 232L223 334L292 260Z" fill="#0e203c" stroke="#0e203c"></path><path d="M409 0L321 0L303 88Z" fill="#7b2d71" stroke="#7b2d71"></path><path d="M303 88L225 106L315 237Z" fill="#ae266f" stroke="#ae266f"></path><path d="M838 396L900 288L782 266Z" fill="#ae266f" stroke="#ae266f"></path><path d="M802 231L900 193L769 94Z" fill="#c62368" stroke="#c62368"></path><path d="M900 383L900 288L838 396Z" fill="#952a72" stroke="#952a72"></path><path d="M469 600L600 600L538 498Z" fill="#7b2d71" stroke="#7b2d71"></path><path d="M705 515L779 600L808 467Z" fill="#06192c" stroke="#06192c"></path><path d="M900 288L900 193L802 231Z" fill="#06192c" stroke="#06192c"></path><path d="M769 94L822 0L705 0Z" fill="#00101c" stroke="#00101c"></path><path d="M417 600L469 600L385 521Z" fill="#1e264b" stroke="#1e264b"></path><path d="M385 521L469 600L538 498Z" fill="#06192c" stroke="#06192c"></path><path d="M321 0L225 106L303 88Z" fill="#7b2d71" stroke="#7b2d71"></path><path d="M600 600L677 600L605 490Z" fill="#ae266f" stroke="#ae266f"></path><path d="M900 104L822 0L769 94Z" fill="#ae266f" stroke="#ae266f"></path><path d="M900 461L838 396L808 467Z" fill="#482d64" stroke="#482d64"></path><path d="M900 461L900 383L838 396Z" fill="#612e6c" stroke="#612e6c"></path><path d="M325 600L417 600L385 521Z" fill="#c62368" stroke="#c62368"></path><path d="M900 193L900 104L769 94Z" fill="#00101c" stroke="#00101c"></path><path d="M225 106L179 170L315 237Z" fill="#c62368" stroke="#c62368"></path><path d="M276 434L280 523L385 521Z" fill="#7b2d71" stroke="#7b2d71"></path><path d="M174 426L280 523L276 434Z" fill="#06192c" stroke="#06192c"></path><path d="M900 600L900 461L808 467Z" fill="#06192c" stroke="#06192c"></path><path d="M677 600L779 600L705 515Z" fill="#00101c" stroke="#00101c"></path><path d="M280 523L325 600L385 521Z" fill="#312a59" stroke="#312a59"></path><path d="M68 370L174 426L223 334Z" fill="#c62368" stroke="#c62368"></path><path d="M223 334L174 426L276 434Z" fill="#312a59" stroke="#312a59"></path><path d="M280 523L191 600L325 600Z" fill="#c62368" stroke="#c62368"></path><path d="M65 120L133 232L179 170Z" fill="#952a72" stroke="#952a72"></path><path d="M179 170L133 232L292 260Z" fill="#952a72" stroke="#952a72"></path><path d="M900 104L900 0L822 0Z" fill="#0e203c" stroke="#0e203c"></path><path d="M321 0L176 0L225 106Z" fill="#06192c" stroke="#06192c"></path><path d="M225 106L65 120L179 170Z" fill="#1e264b" stroke="#1e264b"></path><path d="M63 510L166 532L174 426Z" fill="#612e6c" stroke="#612e6c"></path><path d="M174 426L166 532L280 523Z" fill="#7b2d71" stroke="#7b2d71"></path><path d="M779 600L900 600L808 467Z" fill="#0e203c" stroke="#0e203c"></path><path d="M133 232L60 329L223 334Z" fill="#c62368" stroke="#c62368"></path><path d="M0 220L60 329L133 232Z" fill="#482d64" stroke="#482d64"></path><path d="M60 329L68 370L223 334Z" fill="#7b2d71" stroke="#7b2d71"></path><path d="M126 600L191 600L166 532Z" fill="#0e203c" stroke="#0e203c"></path><path d="M166 532L191 600L280 523Z" fill="#952a72" stroke="#952a72"></path><path d="M176 0L65 120L225 106Z" fill="#312a59" stroke="#312a59"></path><path d="M63 510L126 600L166 532Z" fill="#0e203c" stroke="#0e203c"></path><path d="M176 0L65 0L65 120Z" fill="#ae266f" stroke="#ae266f"></path><path d="M65 120L0 220L133 232Z" fill="#1e264b" stroke="#1e264b"></path><path d="M0 362L63 510L68 370Z" fill="#1e264b" stroke="#1e264b"></path><path d="M68 370L63 510L174 426Z" fill="#952a72" stroke="#952a72"></path><path d="M0 63L0 220L65 120Z" fill="#1e264b" stroke="#1e264b"></path><path d="M60 329L0 362L68 370Z" fill="#ae266f" stroke="#ae266f"></path><path d="M0 220L0 324L60 329Z" fill="#c62368" stroke="#c62368"></path><path d="M0 324L0 362L60 329Z" fill="#482d64" stroke="#482d64"></path><path d="M65 0L0 63L65 120Z" fill="#612e6c" stroke="#612e6c"></path><path d="M65 0L0 0L0 63Z" fill="#0e203c" stroke="#0e203c"></path><path d="M0 362L0 538L63 510Z" fill="#482d64" stroke="#482d64"></path><path d="M63 510L0 600L126 600Z" fill="#06192c" stroke="#06192c"></path><path d="M0 538L0 600L63 510Z" fill="#1e264b" stroke="#1e264b"></path></g></svg>